<svg id="kity_svg_6" xmlns="http://www.w3.org/2000/svg" xmlns:xlink="http://www.w3.org/1999/xlink" version="1.1" width="1314px" height="1441px" contenteditable="true" class="loading-target" style="cursor: default;" viewBox="-64 -738 1314 1441"><defs id="kity_defs_7"><marker id="kity_marker_4" orient="auto" refX="6" refY="0" viewBox="-7 -7 14 14" markerWidth="7" markerHeight="7" markerUnits="userSpaceOnUse"><path id="kity_path_5" fill="none" stroke="none" d="M6,0A6,6,0,1,1,-6,0A6,6,0,1,1,6,0"/></marker></defs><g id="kity_g_8" transform=""><g id="minder_1" text-rendering="geometricPrecision" transform="matrix(1 0 0 1 0 0) scale(1 1)"><g id="minder_connect_group_1"><path id="kity_path_34" fill="none" stroke="#7FBADF" stroke-width="2" d="M84 0A158,494,0,0,1,242 -494" transform="translate( 0.5 0.5 )"/><path id="kity_path_36" fill="none" stroke="#7FBADF" stroke-width="2" d="M84 0A158,280,0,0,1,242 -280" transform="translate( 0.5 0.5 )"/><path id="kity_path_38" fill="none" stroke="#7FBADF" stroke-width="2" d="M84 0A158,338,0,0,0,242 338" transform="translate( 0.5 0.5 )"/><path id="kity_path_540" fill="none" stroke="#7FBADF" stroke-width="2" d="M84 0A158,630,0,0,0,242 630" transform="translate( 0.5 0.5 )"/><path id="kity_path_673" fill="none" stroke="#7FBADF" stroke-width="2" d="M483,-494C498,-494,498,-494,513,-494" transform="translate( 0.5 0.5 )"/><path id="kity_path_890" fill="none" stroke="#7FBADF" stroke-width="2" d="M483,-280C498,-280,498,-410,513,-410" transform="translate( 0.5 0.5 )"/><path id="kity_path_994" fill="none" stroke="#7FBADF" stroke-width="2" d="M483,-280C498,-280,498,-358,513,-358" transform="translate( 0.5 0.5 )"/><path id="kity_path_1290" fill="none" stroke="#7FBADF" stroke-width="2" d="M84 0A158,630,0,0,1,242 -630" transform="translate( 0.5 0.5 )"/><path id="kity_path_1628" fill="none" stroke="#7FBADF" stroke-width="2" d="M410,-630C425,-630,425,-682,440,-682" transform="translate( 0.5 0.5 )"/><path id="kity_path_1713" fill="none" stroke="#7FBADF" stroke-width="2" d="M410,-630C425,-630,425,-630,440,-630" transform="translate( 0.5 0.5 )"/><path id="kity_path_1829" fill="none" stroke="#7FBADF" stroke-width="2" d="M410,-630C425,-630,425,-578,440,-578" transform="translate( 0.5 0.5 )"/><path id="kity_path_4318" fill="none" stroke="#7FBADF" stroke-width="2" d="M483,338C498,338,498,130,513,130" transform="translate( 0.5 0.5 )"/><path id="kity_path_4976" fill="none" stroke="#7FBADF" stroke-width="2" d="M483,-280C498,-280,498,-306,513,-306" transform="translate( 0.5 0.5 )"/><path id="kity_path_6174" fill="none" stroke="#7FBADF" stroke-width="2" d="M483,-280C498,-280,498,-254,513,-254" transform="translate( 0.5 0.5 )"/><path id="kity_path_6647" fill="none" stroke="#7FBADF" stroke-width="2" d="M483,338C498,338,498,390,513,390" transform="translate( 0.5 0.5 )"/><path id="kity_path_7465" fill="none" stroke="#7FBADF" stroke-width="2" d="M483,338C498,338,498,442,513,442" transform="translate( 0.5 0.5 )"/><path id="kity_path_7660" fill="none" stroke="#7FBADF" stroke-width="2" d="M483,338C498,338,498,494,513,494" transform="translate( 0.5 0.5 )"/><path id="kity_path_8244" fill="none" stroke="#7FBADF" stroke-width="2" d="M483,338C498,338,498,546,513,546" transform="translate( 0.5 0.5 )"/><path id="kity_path_8832" fill="none" stroke="#7FBADF" stroke-width="2" d="M483,-280C498,-280,498,-150,513,-150" transform="translate( 0.5 0.5 )"/><path id="kity_path_9710" fill="none" stroke="#7FBADF" stroke-width="2" d="M674,-150C684,-150,684,-202,694,-202" transform="translate( 0.5 0.5 )"/><path id="kity_path_9991" fill="none" stroke="#7FBADF" stroke-width="2" d="M674,-150C684,-150,684,-150,694,-150" transform="translate( 0.5 0.5 )"/><path id="kity_path_10395" fill="none" stroke="#7FBADF" stroke-width="2" d="M674,-150C684,-150,684,-98,694,-98" transform="translate( 0.5 0.5 )"/><path id="kity_path_11320" fill="none" stroke="#7FBADF" stroke-width="2" d="M728,130C738,130,738,130,748,130" transform="translate( 0.5 0.5 )"/><path id="kity_path_12144" fill="none" stroke="#7FBADF" stroke-width="2" d="M981,130C991,130,991,-26,1001,-26" transform="translate( 0.5 0.5 )"/><path id="kity_path_12502" fill="none" stroke="#7FBADF" stroke-width="2" d="M981,130C991,130,991,26,1001,26" transform="translate( 0.5 0.5 )"/><path id="kity_path_12952" fill="none" stroke="#7FBADF" stroke-width="2" d="M981,130C991,130,991,78,1001,78" transform="translate( 0.5 0.5 )"/><path id="kity_path_13446" fill="none" stroke="#7FBADF" stroke-width="2" d="M981,130C991,130,991,234,1001,234" transform="translate( 0.5 0.5 )"/><path id="kity_path_14406" fill="none" stroke="#7FBADF" stroke-width="2" d="M981,130C991,130,991,286,1001,286" transform="translate( 0.5 0.5 )"/><path id="kity_path_15342" fill="none" stroke="#7FBADF" stroke-width="2" d="M981,130C991,130,991,130,1001,130" transform="translate( 0.5 0.5 )"/><path id="kity_path_16700" fill="none" stroke="#7FBADF" stroke-width="2" d="M981,130C991,130,991,182,1001,182" transform="translate( 0.5 0.5 )"/><path id="kity_path_18754" fill="none" stroke="#7FBADF" stroke-width="2" d="M483,338C498,338,498,338,513,338" transform="translate( 0.5 0.5 )"/></g><g id="kity_g_16" display="none"><path id="kity_path_17" fill="rgba(0, 255, 0, .5)" stroke="none" d="M521,287h112v15h-112z"/><path id="kity_path_18" fill="none" stroke="#0f0" d="M521,302L633,302" stroke-width="1"/></g><g id="minder_node_1" transform="matrix( 1 0 0 1 0 0 )"><path id="kity_path_24" fill="none" stroke="none" d="M-8,-23h192a12,12,0,0,1,12,12v32a12,12,0,0,1,-12,12h-192a12,12,0,0,1,-12,-12v-32a12,12,0,0,1,12,-12z"/><path id="node_outline_1" fill="#0575BF" stroke="#0575BF" d="M-12,-28h192a12,12,0,0,1,12,12v32a12,12,0,0,1,-12,12h-192a12,12,0,0,1,-12,-12v-32a12,12,0,0,1,12,-12z" stroke-width="4"/><g id="node_text_1" transform="translate( 0 -3.5999999999999996 )" fill="#FFF" style="cursor: default;"><text id="kity_text_22" text-rendering="inherit" dominant-baseline="text-before-edge" dy="0" font-size="24" y="-12" font-weight="bold">如何阅读一本书</text></g></g><g id="minder_node_4" transform="matrix( 1 0 0 1 266 -494 )"><path id="kity_path_22466" fill="none" stroke="none" d="M-8,-23h217a12,12,0,0,1,12,12v32a12,12,0,0,1,-12,12h-217a12,12,0,0,1,-12,-12v-32a12,12,0,0,1,12,-12z"/><g id="node_expander_1" transform="translate( 223 0 )" style="cursor: pointer;"><path id="kity_path_49" fill="white" stroke="gray" d="M6,0A6,6,0,1,1,-6,0A6,6,0,1,1,6,0"/><path id="kity_path_50" fill="none" stroke="gray" d="M-4.5,0L4.5,0"/></g><path id="node_outline_2" fill="#56A4D8" stroke="#56A4D8" d="M-12,-28h217a12,12,0,0,1,12,12v32a12,12,0,0,1,-12,12h-217a12,12,0,0,1,-12,-12v-32a12,12,0,0,1,12,-12z" stroke-width="2"/><g id="node_text_2" transform="translate( 0 -3.5999999999999996 )" fill="#FFF" style="cursor: default;"><text id="kity_text_40" text-rendering="inherit" dominant-baseline="text-before-edge" dy="0" font-size="24" y="-12">层次一：基础阅读</text></g></g><g id="minder_node_6" transform="matrix( 1 0 0 1 266 338 )"><path id="kity_path_22468" fill="none" stroke="none" d="M-8,-23h217a12,12,0,0,1,12,12v32a12,12,0,0,1,-12,12h-217a12,12,0,0,1,-12,-12v-32a12,12,0,0,1,12,-12z"/><g id="node_expander_3" transform="translate( 223 0 )" style="cursor: pointer;"><path id="kity_path_55" fill="white" stroke="gray" d="M6,0A6,6,0,1,1,-6,0A6,6,0,1,1,6,0"/><path id="kity_path_56" fill="none" stroke="gray" d="M-4.5,0L4.5,0"/></g><path id="node_outline_4" fill="#56A4D8" stroke="#56A4D8" d="M-12,-28h217a12,12,0,0,1,12,12v32a12,12,0,0,1,-12,12h-217a12,12,0,0,1,-12,-12v-32a12,12,0,0,1,12,-12z" stroke-width="2"/><g id="node_text_4" transform="translate( 0 -3.5999999999999996 )" fill="#FFF" style="cursor: default;"><text id="kity_text_44" text-rendering="inherit" dominant-baseline="text-before-edge" dy="0" font-size="24" y="-12">层次三：分析阅读</text></g></g><g id="minder_node_482" transform="matrix( 1 0 0 1 266 630 )"><path id="kity_path_22469" fill="none" stroke="none" d="M-8,-23h217a12,12,0,0,1,12,12v32a12,12,0,0,1,-12,12h-217a12,12,0,0,1,-12,-12v-32a12,12,0,0,1,12,-12z"/><g id="node_expander_5" transform="translate( 223 0 )" style="cursor: pointer;" display="none"><path id="kity_path_545" fill="white" stroke="gray" d="M6,0A6,6,0,1,1,-6,0A6,6,0,1,1,6,0"/><path id="kity_path_546" fill="none" stroke="gray"/></g><path id="node_outline_6" fill="#56A4D8" stroke="#56A4D8" d="M-12,-28h217a12,12,0,0,1,12,12v32a12,12,0,0,1,-12,12h-217a12,12,0,0,1,-12,-12v-32a12,12,0,0,1,12,-12z" stroke-width="2"/><g id="node_text_6" transform="translate( 0 -3.5999999999999996 )" fill="#FFF" style="cursor: default;"><text id="kity_text_542" text-rendering="inherit" dominant-baseline="text-before-edge" dy="0" font-size="24" y="-12">层次四：主题阅读</text></g><path id="_kity_selection" fill="rgb(27,171,255)" stroke="none" opacity="0.5" transform="translate( -0.5 -1.5 )" style="cursor: text; display: none;" d="M0,-7h2v18h-2v-18z"/></g><g id="minder_node_1197" transform="matrix( 1 0 0 1 266 -630 )" opacity="1"><path id="kity_path_22465" fill="none" stroke="none" d="M-8,-23h144a12,12,0,0,1,12,12v32a12,12,0,0,1,-12,12h-144a12,12,0,0,1,-12,-12v-32a12,12,0,0,1,12,-12z"/><g id="node_expander_10" transform="translate( 150 0 )" style="cursor: pointer;"><path id="kity_path_1295" fill="white" stroke="gray" d="M6,0A6,6,0,1,1,-6,0A6,6,0,1,1,6,0"/><path id="kity_path_1296" fill="none" stroke="gray" d="M-4.5,0L4.5,0"/></g><path id="node_outline_11" fill="#56A4D8" stroke="#56A4D8" d="M-12,-28h144a12,12,0,0,1,12,12v32a12,12,0,0,1,-12,12h-144a12,12,0,0,1,-12,-12v-32a12,12,0,0,1,12,-12z" stroke-width="2"/><g id="node_text_11" transform="translate( 0 -3.5999999999999996 )" fill="#FFF" style="cursor: default;"><text id="kity_text_1292" text-rendering="inherit" dominant-baseline="text-before-edge" dy="0" font-size="24" y="-12">阅读的目的</text></g></g><g id="minder_node_1528" transform="matrix( 1 0 0 1 448 -682 )"><g id="node_expander_11" transform="translate( 62 0 )" style="cursor: pointer;" display="none"><path id="kity_path_1633" fill="white" stroke="gray" d="M6,0A6,6,0,1,1,-6,0A6,6,0,1,1,6,0"/><path id="kity_path_1634" fill="none" stroke="gray"/></g><path id="node_outline_12" fill="none" stroke="none" d="M-4,-16h56a4,4,0,0,1,4,4v24a4,4,0,0,1,-4,4h-56a4,4,0,0,1,-4,-4v-24a4,4,0,0,1,4,-4z" stroke-width="2"/><g id="node_text_12" transform="translate( 0 -3.5999999999999996 )" fill="#0475C0" style="cursor: default;"><text id="kity_text_1630" text-rendering="inherit" dominant-baseline="text-before-edge" dy="0" font-size="24" y="-12">娱乐</text></g></g><g id="minder_node_1606" transform="matrix( 1 0 0 1 448 -630 )"><g id="node_expander_12" transform="translate( 64 0 )" style="cursor: pointer;" display="none"><path id="kity_path_1718" fill="white" stroke="gray" d="M6,0A6,6,0,1,1,-6,0A6,6,0,1,1,6,0"/><path id="kity_path_1719" fill="none" stroke="gray"/></g><path id="node_outline_13" fill="none" stroke="none" d="M-4,-16h58a4,4,0,0,1,4,4v24a4,4,0,0,1,-4,4h-58a4,4,0,0,1,-4,-4v-24a4,4,0,0,1,4,-4z" stroke-width="2"/><g id="node_text_13" transform="translate( 0 -3.5999999999999996 )" fill="#0475C0" style="cursor: default;"><text id="kity_text_1715" text-rendering="inherit" dominant-baseline="text-before-edge" dy="0" font-size="24" y="-12">知识</text></g></g><g id="minder_node_1715" transform="matrix( 1 0 0 1 448 -578 )"><g id="node_expander_13" transform="translate( 63 0 )" style="cursor: pointer;" display="none"><path id="kity_path_1834" fill="white" stroke="gray" d="M6,0A6,6,0,1,1,-6,0A6,6,0,1,1,6,0"/><path id="kity_path_1835" fill="none" stroke="gray"/></g><path id="node_outline_14" fill="none" stroke="none" d="M-4,-16h57a4,4,0,0,1,4,4v24a4,4,0,0,1,-4,4h-57a4,4,0,0,1,-4,-4v-24a4,4,0,0,1,4,-4z" stroke-width="2"/><g id="node_text_14" transform="translate( 0 -3.5999999999999996 )" fill="#0475C0" style="cursor: default;"><text id="kity_text_1831" text-rendering="inherit" dominant-baseline="text-before-edge" dy="0" font-size="24" y="-12">理解</text></g></g><g id="minder_node_608" transform="matrix( 1 0 0 1 521 -494 )"><g id="node_expander_6" transform="translate( 110 0 )" style="cursor: pointer;" display="none"><path id="kity_path_678" fill="white" stroke="gray" d="M6,0A6,6,0,1,1,-6,0A6,6,0,1,1,6,0"/><path id="kity_path_679" fill="none" stroke="gray"/></g><path id="node_outline_7" fill="none" stroke="none" d="M-4,-16h104a4,4,0,0,1,4,4v24a4,4,0,0,1,-4,4h-104a4,4,0,0,1,-4,-4v-24a4,4,0,0,1,4,-4z" stroke-width="2"/><g id="node_text_7" transform="translate( 0 -3.5999999999999996 )" fill="#0475C0" style="cursor: default;"><text id="kity_text_675" text-rendering="inherit" dominant-baseline="text-before-edge" dy="0" font-size="24" y="-12">识字能力</text></g></g><g id="minder_node_811" transform="matrix( 1 0 0 1 521 -410 )"><g id="node_expander_8" transform="translate( 327 0 )" style="cursor: pointer;" display="none"><path id="kity_path_895" fill="white" stroke="gray" d="M6,0A6,6,0,1,1,-6,0A6,6,0,1,1,6,0"/><path id="kity_path_896" fill="none" stroke="gray"/></g><path id="node_outline_9" fill="none" stroke="none" d="M-4,-16h321a4,4,0,0,1,4,4v24a4,4,0,0,1,-4,4h-321a4,4,0,0,1,-4,-4v-24a4,4,0,0,1,4,-4z" stroke-width="2"/><g id="node_text_9" transform="translate( 0 -3.5999999999999996 )" fill="#0475C0" style="cursor: default;"><text id="kity_text_892" text-rendering="inherit" dominant-baseline="text-before-edge" dy="0" font-size="24" y="-12">第一步：迅速从整体抓住纲领</text></g></g><g id="minder_node_908" transform="matrix( 1 0 0 1 521 -358 )"><g id="node_expander_9" transform="translate( 399 0 )" style="cursor: pointer;" display="none"><path id="kity_path_999" fill="white" stroke="gray" d="M6,0A6,6,0,1,1,-6,0A6,6,0,1,1,6,0"/><path id="kity_path_1000" fill="none" stroke="gray"/></g><path id="node_outline_10" fill="none" stroke="none" d="M-4,-16h393a4,4,0,0,1,4,4v24a4,4,0,0,1,-4,4h-393a4,4,0,0,1,-4,-4v-24a4,4,0,0,1,4,-4z" stroke-width="2"/><g id="node_text_10" transform="translate( 0 -3.5999999999999996 )" fill="#0475C0" style="cursor: default;"><text id="kity_text_996" text-rendering="inherit" dominant-baseline="text-before-edge" dy="0" font-size="24" y="-12">第二步：粗浅式建立相对更深的理解</text></g></g><g id="minder_node_4841" transform="matrix( 1 0 0 1 521 -306 )"><g id="node_expander_16" transform="translate( 293 0 )" style="cursor: pointer;" display="none"><path id="kity_path_4981" fill="white" stroke="gray" d="M6,0A6,6,0,1,1,-6,0A6,6,0,1,1,6,0"/><path id="kity_path_4982" fill="none" stroke="gray"/></g><path id="node_outline_17" fill="none" stroke="none" d="M-4,-16h287a4,4,0,0,1,4,4v24a4,4,0,0,1,-4,4h-287a4,4,0,0,1,-4,-4v-24a4,4,0,0,1,4,-4z" stroke-width="2"/><g id="node_text_17" transform="translate( 0 -3.5999999999999996 )" fill="#0475C0" style="cursor: default;"><text id="kity_text_4978" text-rendering="inherit" dominant-baseline="text-before-edge" dy="0" font-size="24" y="-12">控制阅读速度（快 or 慢）</text></g></g><g id="minder_node_6032" transform="matrix( 1 0 0 1 521 -254 )"><g id="node_expander_17" transform="translate( 158 0 )" style="cursor: pointer;" display="none"><path id="kity_path_6179" fill="white" stroke="gray" d="M6,0A6,6,0,1,1,-6,0A6,6,0,1,1,6,0"/><path id="kity_path_6180" fill="none" stroke="gray"/></g><path id="node_outline_18" fill="none" stroke="none" d="M-4,-16h152a4,4,0,0,1,4,4v24a4,4,0,0,1,-4,4h-152a4,4,0,0,1,-4,-4v-24a4,4,0,0,1,4,-4z" stroke-width="2"/><g id="node_text_18" transform="translate( 0 -3.5999999999999996 )" fill="#0475C0" style="cursor: default;"><text id="kity_text_6176" text-rendering="inherit" dominant-baseline="text-before-edge" dy="0" font-size="24" y="-12">带着问题阅读</text></g></g><g id="minder_node_7490" transform="matrix( 1 0 0 1 521 494 )"><g id="node_expander_21" transform="translate( 158 0 )" style="cursor: pointer;" display="none"><path id="kity_path_7665" fill="white" stroke="gray" d="M6,0A6,6,0,1,1,-6,0A6,6,0,1,1,6,0"/><path id="kity_path_7666" fill="none" stroke="gray"/></g><path id="node_outline_22" fill="none" stroke="none" d="M-4,-16h152a4,4,0,0,1,4,4v24a4,4,0,0,1,-4,4h-152a4,4,0,0,1,-4,-4v-24a4,4,0,0,1,4,-4z" stroke-width="2"/><g id="node_text_22" transform="translate( 0 -3.5999999999999996 )" fill="#0475C0" style="cursor: default;"><text id="kity_text_7662" text-rendering="inherit" dominant-baseline="text-before-edge" dy="0" font-size="24" y="-12">借助辅助工具</text></g></g><g id="minder_node_8067" transform="matrix( 1 0 0 1 521 546 )"><g id="node_expander_22" transform="translate( 134 0 )" style="cursor: pointer;" display="none"><path id="kity_path_8249" fill="white" stroke="gray" d="M6,0A6,6,0,1,1,-6,0A6,6,0,1,1,6,0"/><path id="kity_path_8250" fill="none" stroke="gray"/></g><path id="node_outline_23" fill="none" stroke="none" d="M-4,-16h128a4,4,0,0,1,4,4v24a4,4,0,0,1,-4,4h-128a4,4,0,0,1,-4,-4v-24a4,4,0,0,1,4,-4z" stroke-width="2"/><g id="node_text_23" transform="translate( 0 -3.5999999999999996 )" fill="#0475C0" style="cursor: default;"><text id="kity_text_8246" text-rendering="inherit" dominant-baseline="text-before-edge" dy="0" font-size="24" y="-12">评价一本书</text></g></g><g id="minder_node_5" transform="matrix( 1 0 0 1 266 -280 )"><path id="kity_path_22467" fill="none" stroke="none" d="M-8,-23h217a12,12,0,0,1,12,12v32a12,12,0,0,1,-12,12h-217a12,12,0,0,1,-12,-12v-32a12,12,0,0,1,12,-12z"/><g id="node_expander_2" transform="translate( 223 0 )" style="cursor: pointer;"><path id="kity_path_52" fill="white" stroke="gray" d="M6,0A6,6,0,1,1,-6,0A6,6,0,1,1,6,0"/><path id="kity_path_53" fill="none" stroke="gray" d="M-4.5,0L4.5,0"/></g><path id="node_outline_3" fill="#56A4D8" stroke="#56A4D8" d="M-12,-28h217a12,12,0,0,1,12,12v32a12,12,0,0,1,-12,12h-217a12,12,0,0,1,-12,-12v-32a12,12,0,0,1,12,-12z" stroke-width="2"/><g id="node_text_3" transform="translate( 0 -3.5999999999999996 )" fill="#FFF" style="cursor: default;"><text id="kity_text_42" text-rendering="inherit" dominant-baseline="text-before-edge" dy="0" font-size="24" y="-12">层次二：检视阅读</text></g></g><g id="minder_node_8641" transform="matrix( 1 0 0 1 521 -150 )"><g id="node_expander_24" transform="translate( 159 0 )" style="cursor: pointer;"><path id="kity_path_8837" fill="white" stroke="gray" d="M6,0A6,6,0,1,1,-6,0A6,6,0,1,1,6,0"/><path id="kity_path_8838" fill="none" stroke="gray" d="M-4.5,0L4.5,0"/></g><path id="node_outline_25" fill="none" stroke="none" d="M-4,-16h153a4,4,0,0,1,4,4v24a4,4,0,0,1,-4,4h-153a4,4,0,0,1,-4,-4v-24a4,4,0,0,1,4,-4z" stroke-width="2"/><g id="node_text_25" transform="translate( 0 -3.5999999999999996 )" fill="#0475C0" style="cursor: default;"><text id="kity_text_8834" text-rendering="inherit" dominant-baseline="text-before-edge" dy="0" font-size="24" y="-12">做笔记的方式</text></g></g><g id="minder_node_9505" transform="matrix( 1 0 0 1 702 -202 )"><g id="node_expander_26" transform="translate( 110 0 )" style="cursor: pointer;" display="none"><path id="kity_path_9715" fill="white" stroke="gray" d="M6,0A6,6,0,1,1,-6,0A6,6,0,1,1,6,0"/><path id="kity_path_9716" fill="none" stroke="gray"/></g><path id="node_outline_27" fill="none" stroke="none" d="M-4,-16h104a4,4,0,0,1,4,4v24a4,4,0,0,1,-4,4h-104a4,4,0,0,1,-4,-4v-24a4,4,0,0,1,4,-4z" stroke-width="2"/><g id="node_text_27" transform="translate( 0 -3.5999999999999996 )" fill="#0475C0" style="cursor: default;"><text id="kity_text_9712" text-rendering="inherit" dominant-baseline="text-before-edge" dy="0" font-size="24" y="-12">结构笔记</text></g></g><g id="minder_node_9779" transform="matrix( 1 0 0 1 702 -150 )"><g id="node_expander_27" transform="translate( 110 0 )" style="cursor: pointer;" display="none"><path id="kity_path_9996" fill="white" stroke="gray" d="M6,0A6,6,0,1,1,-6,0A6,6,0,1,1,6,0"/><path id="kity_path_9997" fill="none" stroke="gray"/></g><path id="node_outline_28" fill="none" stroke="none" d="M-4,-16h104a4,4,0,0,1,4,4v24a4,4,0,0,1,-4,4h-104a4,4,0,0,1,-4,-4v-24a4,4,0,0,1,4,-4z" stroke-width="2"/><g id="node_text_28" transform="translate( 0 -3.5999999999999996 )" fill="#0475C0" style="cursor: default;"><text id="kity_text_9993" text-rendering="inherit" dominant-baseline="text-before-edge" dy="0" font-size="24" y="-12">概念笔记</text></g></g><g id="minder_node_10176" transform="matrix( 1 0 0 1 702 -98 )"><g id="node_expander_28" transform="translate( 110 0 )" style="cursor: pointer;" display="none"><path id="kity_path_10400" fill="white" stroke="gray" d="M6,0A6,6,0,1,1,-6,0A6,6,0,1,1,6,0"/><path id="kity_path_10401" fill="none" stroke="gray"/></g><path id="node_outline_29" fill="none" stroke="none" d="M-4,-16h104a4,4,0,0,1,4,4v24a4,4,0,0,1,-4,4h-104a4,4,0,0,1,-4,-4v-24a4,4,0,0,1,4,-4z" stroke-width="2"/><g id="node_text_29" transform="translate( 0 -3.5999999999999996 )" fill="#0475C0" style="cursor: default;"><text id="kity_text_10397" text-rendering="inherit" dominant-baseline="text-before-edge" dy="0" font-size="24" y="-12">辩证笔记</text></g></g><g id="minder_node_4190" transform="matrix( 1 0 0 1 521 130 )"><g id="node_expander_15" transform="translate( 213 0 )" style="cursor: pointer;"><path id="kity_path_4323" fill="white" stroke="gray" d="M6,0A6,6,0,1,1,-6,0A6,6,0,1,1,6,0"/><path id="kity_path_4324" fill="none" stroke="gray" d="M-4.5,0L4.5,0"/></g><path id="node_outline_16" fill="none" stroke="none" d="M-4,-16h207a4,4,0,0,1,4,4v24a4,4,0,0,1,-4,4h-207a4,4,0,0,1,-4,-4v-24a4,4,0,0,1,4,-4z" stroke-width="2"/><g id="node_text_16" transform="translate( 0 -3.5999999999999996 )" fill="#0475C0" style="cursor: default;"><text id="kity_text_4320" text-rendering="inherit" dominant-baseline="text-before-edge" dy="0" font-size="24" y="-12">判断体裁 写作目的</text></g></g><g id="minder_node_11080" transform="matrix( 1 0 0 1 756 130 )"><g id="node_expander_31" transform="translate( 231 0 )" style="cursor: pointer;"><path id="kity_path_11325" fill="white" stroke="gray" d="M6,0A6,6,0,1,1,-6,0A6,6,0,1,1,6,0"/><path id="kity_path_11326" fill="none" stroke="gray" d="M-4.5,0L4.5,0"/></g><path id="node_outline_32" fill="none" stroke="none" d="M-4,-16h225a4,4,0,0,1,4,4v24a4,4,0,0,1,-4,4h-225a4,4,0,0,1,-4,-4v-24a4,4,0,0,1,4,-4z" stroke-width="2"/><g id="node_text_32" transform="translate( 0 -3.5999999999999996 )" fill="#0475C0" style="cursor: default;"><text id="kity_text_11322" text-rendering="inherit" dominant-baseline="text-before-edge" dy="0" font-size="24" y="-12">不同题材的阅读方法</text></g></g><g id="minder_node_11897" transform="matrix( 1 0 0 1 1009 -26 )"><g id="node_expander_32" transform="translate( 87 0 )" style="cursor: pointer;" display="none"><path id="kity_path_12149" fill="white" stroke="gray" d="M6,0A6,6,0,1,1,-6,0A6,6,0,1,1,6,0"/><path id="kity_path_12150" fill="none" stroke="gray"/></g><path id="node_outline_33" fill="none" stroke="none" d="M-4,-16h81a4,4,0,0,1,4,4v24a4,4,0,0,1,-4,4h-81a4,4,0,0,1,-4,-4v-24a4,4,0,0,1,4,-4z" stroke-width="2"/><g id="node_text_33" transform="translate( 0 -3.5999999999999996 )" fill="#0475C0" style="cursor: default;"><text id="kity_text_12146" text-rendering="inherit" dominant-baseline="text-before-edge" dy="0" font-size="24" y="-12">应用文</text></g></g><g id="minder_node_12248" transform="matrix( 1 0 0 1 1009 26 )"><g id="node_expander_33" transform="translate( 110 0 )" style="cursor: pointer;" display="none"><path id="kity_path_12507" fill="white" stroke="gray" d="M6,0A6,6,0,1,1,-6,0A6,6,0,1,1,6,0"/><path id="kity_path_12508" fill="none" stroke="gray"/></g><path id="node_outline_34" fill="none" stroke="none" d="M-4,-16h104a4,4,0,0,1,4,4v24a4,4,0,0,1,-4,4h-104a4,4,0,0,1,-4,-4v-24a4,4,0,0,1,4,-4z" stroke-width="2"/><g id="node_text_34" transform="translate( 0 -3.5999999999999996 )" fill="#0475C0" style="cursor: default;"><text id="kity_text_12504" text-rendering="inherit" dominant-baseline="text-before-edge" dy="0" font-size="24" y="-12">历史著作</text></g></g><g id="minder_node_13178" transform="matrix( 1 0 0 1 1009 234 )"><g id="node_expander_35" transform="translate( 134 0 )" style="cursor: pointer;" display="none"><path id="kity_path_13451" fill="white" stroke="gray" d="M6,0A6,6,0,1,1,-6,0A6,6,0,1,1,6,0"/><path id="kity_path_13452" fill="none" stroke="gray"/></g><path id="node_outline_36" fill="none" stroke="none" d="M-4,-16h128a4,4,0,0,1,4,4v24a4,4,0,0,1,-4,4h-128a4,4,0,0,1,-4,-4v-24a4,4,0,0,1,4,-4z" stroke-width="2"/><g id="node_text_36" transform="translate( 0 -3.5999999999999996 )" fill="#0475C0" style="cursor: default;"><text id="kity_text_13448" text-rendering="inherit" dominant-baseline="text-before-edge" dy="0" font-size="24" y="-12">科学与数学</text></g></g><g id="minder_node_12691" transform="matrix( 1 0 0 1 1009 78 )"><g id="node_expander_34" transform="translate( 207 0 )" style="cursor: pointer;" display="none"><path id="kity_path_12957" fill="white" stroke="gray" d="M6,0A6,6,0,1,1,-6,0A6,6,0,1,1,6,0"/><path id="kity_path_12958" fill="none" stroke="gray"/></g><path id="node_outline_35" fill="none" stroke="none" d="M-4,-16h201a4,4,0,0,1,4,4v24a4,4,0,0,1,-4,4h-201a4,4,0,0,1,-4,-4v-24a4,4,0,0,1,4,-4z" stroke-width="2"/><g id="node_text_35" transform="translate( 0 -3.5999999999999996 )" fill="#0475C0" style="cursor: default;"><text id="kity_text_12954" text-rendering="inherit" dominant-baseline="text-before-edge" dy="0" font-size="24" y="-12">故事、戏剧和诗歌</text></g></g><g id="minder_node_15060" transform="matrix( 1 0 0 1 1009 130 )"><g id="node_expander_37" transform="translate( 110 0 )" style="cursor: pointer;" display="none"><path id="kity_path_15347" fill="white" stroke="gray" d="M6,0A6,6,0,1,1,-6,0A6,6,0,1,1,6,0"/><path id="kity_path_15348" fill="none" stroke="gray"/></g><path id="node_outline_38" fill="none" stroke="none" d="M-4,-16h104a4,4,0,0,1,4,4v24a4,4,0,0,1,-4,4h-104a4,4,0,0,1,-4,-4v-24a4,4,0,0,1,4,-4z" stroke-width="2"/><g id="node_text_38" transform="translate( 0 -3.5999999999999996 )" fill="#0475C0" style="cursor: default;"><text id="kity_text_15344" text-rendering="inherit" dominant-baseline="text-before-edge" dy="0" font-size="24" y="-12">想象文学</text></g></g><g id="minder_node_16411" transform="matrix( 1 0 0 1 1009 182 )"><g id="node_expander_38" transform="translate( 110 0 )" style="cursor: pointer;" display="none"><path id="kity_path_16705" fill="white" stroke="gray" d="M6,0A6,6,0,1,1,-6,0A6,6,0,1,1,6,0"/><path id="kity_path_16706" fill="none" stroke="gray"/></g><path id="node_outline_39" fill="none" stroke="none" d="M-4,-16h104a4,4,0,0,1,4,4v24a4,4,0,0,1,-4,4h-104a4,4,0,0,1,-4,-4v-24a4,4,0,0,1,4,-4z" stroke-width="2"/><g id="node_text_39" transform="translate( 0 -3.5999999999999996 )" fill="#0475C0" style="cursor: default;"><text id="kity_text_16702" text-rendering="inherit" dominant-baseline="text-before-edge" dy="0" font-size="24" y="-12">社会科学</text></g></g><g id="minder_node_14131" transform="matrix( 1 0 0 1 1009 286 )"><g id="node_expander_36" transform="translate( 62 0 )" style="cursor: pointer;" display="none"><path id="kity_path_14411" fill="white" stroke="gray" d="M6,0A6,6,0,1,1,-6,0A6,6,0,1,1,6,0"/><path id="kity_path_14412" fill="none" stroke="gray"/></g><path id="node_outline_37" fill="none" stroke="none" d="M-4,-16h56a4,4,0,0,1,4,4v24a4,4,0,0,1,-4,4h-56a4,4,0,0,1,-4,-4v-24a4,4,0,0,1,4,-4z" stroke-width="2"/><g id="node_text_37" transform="translate( 0 -3.5999999999999996 )" fill="#0475C0" style="cursor: default;"><text id="kity_text_14408" text-rendering="inherit" dominant-baseline="text-before-edge" dy="0" font-size="24" y="-12">哲学</text></g></g><g id="minder_node_7302" transform="matrix( 1 0 0 1 521 442 )"><g id="node_expander_20" transform="translate( 182 0 )" style="cursor: pointer;" display="none"><path id="kity_path_7470" fill="white" stroke="gray" d="M6,0A6,6,0,1,1,-6,0A6,6,0,1,1,6,0"/><path id="kity_path_7471" fill="none" stroke="gray"/></g><path id="node_outline_21" fill="none" stroke="none" d="M-4,-16h176a4,4,0,0,1,4,4v24a4,4,0,0,1,-4,4h-176a4,4,0,0,1,-4,-4v-24a4,4,0,0,1,4,-4z" stroke-width="2"/><g id="node_text_21" transform="translate( 0 -3.5999999999999996 )" fill="#0475C0" style="cursor: default;"><text id="kity_text_7467" text-rendering="inherit" dominant-baseline="text-before-edge" dy="0" font-size="24" y="-12">关键句、主旨句</text></g></g><g id="minder_node_6498" transform="matrix( 1 0 0 1 521 390 )"><g id="node_expander_18" transform="translate( 206 0 )" style="cursor: pointer;" display="none"><path id="kity_path_6652" fill="white" stroke="gray" d="M6,0A6,6,0,1,1,-6,0A6,6,0,1,1,6,0"/><path id="kity_path_6653" fill="none" stroke="gray" d="M-4.5,0L4.5,0"/></g><path id="node_outline_19" fill="none" stroke="none" d="M-4,-16h200a4,4,0,0,1,4,4v24a4,4,0,0,1,-4,4h-200a4,4,0,0,1,-4,-4v-24a4,4,0,0,1,4,-4z" stroke-width="2"/><g id="node_text_19" transform="translate( 0 -3.5999999999999996 )" fill="#0475C0" style="cursor: default;"><text id="kity_text_6649" text-rendering="inherit" dominant-baseline="text-before-edge" dy="0" font-size="24" y="-12">关键词、专业词汇</text></g></g><g id="minder_node_18458" transform="matrix( 1 0 0 1 521 338 )" opacity="1"><g id="node_expander_39" transform="translate( 134 0 )" style="cursor: pointer;" display="none"><path id="kity_path_18759" fill="white" stroke="gray" d="M6,0A6,6,0,1,1,-6,0A6,6,0,1,1,6,0"/><path id="kity_path_18760" fill="none" stroke="gray"/></g><path id="node_outline_40" fill="none" stroke="none" d="M-4,-16h128a4,4,0,0,1,4,4v24a4,4,0,0,1,-4,4h-128a4,4,0,0,1,-4,-4v-24a4,4,0,0,1,4,-4z" stroke-width="2"/><g id="node_text_40" transform="translate( 0 -3.5999999999999996 )" fill="#0475C0" style="cursor: default;"><text id="kity_text_18756" text-rendering="inherit" dominant-baseline="text-before-edge" dy="0" font-size="24" y="-12">透视一本书</text></g></g><g id="kity_g_14" display="none"><path id="kity_path_15" fill="none" stroke="yellow" d="M526,307h102a5,5,0,0,1,5,5v10a5,5,0,0,1,-5,5h-102a5,5,0,0,1,-5,-5v-10a5,5,0,0,1,5,-5z" stroke-width="2"/></g></g></g></svg>